<svg height="512" viewBox="0 0 512 512" width="512" xmlns="http://www.w3.org/2000/svg"><path d="m90.844 396.027c-10.95-1.037-22.336-8.335-28.347-12.763a2.986 2.986 0 0 0 -4.746 2.216c-.751 11.32-1.866 36.691 2.229 47.63 9.628 25.719 43.691 24.789 64.9 10.135 13.48-21.217-1.311-44.12-34.036-47.218z" fill="#75bc48"/><path d="m165.757 508.815c-.107 0-.215 0-.323-.011a4.5 4.5 0 0 1 -4.17-4.807c1.055-14.882-4.178-33.183-9.719-52.558-9.436-33-19.194-67.126.971-90.149q.147-.168.309-.32c1.807-1.692 6.307-5.756 9.069-6.94a4.5 4.5 0 1 1 3.545 8.273 43.443 43.443 0 0 0 -6.3 5.083c-16.737 19.35-7.692 50.984 1.057 81.578 5.765 20.161 11.21 39.2 10.042 55.67a4.5 4.5 0 0 1 -4.481 4.181z" fill="#58962f"/><path d="m162.716 481.482a4.5 4.5 0 0 1 -4.288-3.139c-6.443-20.28-18.187-24.621-33.055-30.117-11.9-4.4-25.394-9.387-37.885-23.368a4.5 4.5 0 1 1 6.712-6c11 12.311 22.841 16.689 34.294 20.922 15.806 5.843 30.737 11.362 38.511 35.835a4.5 4.5 0 0 1 -4.289 5.863z" fill="#58962f"/><path d="m188.8 343.834c-.022 20.92 3.527 45.932 17.792 45.961 20.477.043 14.248-26.656 5.771-48.377 11.014 24.3 26.263 40.71 36.892 36.345 17.725-7.279 3.12-36.287-18.135-51.788 4.226 2.895 9.518 6.2 19.708 14.015 19.565 14.994 34.083.676 27-12.864-8.918-17.05-30.575-22.032-41.016-23.464 10.007.737 29.594.783 31.479-10.179 1.834-10.661-15.244-28.576-37.784-15.059 24.6-24.677-7.888-43.818-23.936-22.424 4.54-13.07 1.985-26.048-13.187-27.374-11.236-.983-17.461 8.194-16.859 20.665-5.635-20.884-22.146-31.047-33.568-23.221-8.418 5.767-.9 20.123 5.433 29.522-14.943-15.059-43.909-21.764-47.424-10.067-3.038 10.107 15.039 20.789 28.62 27.006-20.546-4.926-46.779-.374-49.861 11.071-3.957 14.7 26.427 18.055 45.632 17.867-36.069 5.562-40.365 26.784-33.111 34.8 7.479 8.263 32.515 1.561 47.911-13.258-21.359 23.693-26.206 43.4-14.919 48.725 15.687 7.4 30.745-16.1 39.515-34.193-7.33 16.6-17.3 45.86-.345 51.051 15.292 4.68 22.736-25.243 24.392-44.76z" fill="#ffcc29"/><path d="m448.731 239.139a2.991 2.991 0 0 0 -5.519-1.04 53.911 53.911 0 0 1 -37.535 25.4c-47.636 8.348-69.851 29.494-62.761 78.941 65.867 39.163 112.349-3.081 112.059-47.79-.103-15.85-3.999-41.817-6.244-55.511z" fill="#75bc48"/><path d="m323.851 508.816a4.5 4.5 0 0 1 -4.279-3.112c-24.5-75.519-11.55-136.142-.12-189.628 9.873-46.2 18.4-86.106-1.645-122.99a4.5 4.5 0 1 1 7.907-4.3c21.634 39.807 12.785 81.218 2.539 129.168-11.193 52.379-23.879 111.747-.121 184.97a4.5 4.5 0 0 1 -4.281 5.889z" fill="#58962f"/><path d="m310.7 414.528a4.625 4.625 0 0 1 -.523-.03 4.5 4.5 0 0 1 -3.953-4.988c7.122-61.575 53.872-88.974 78.988-103.694 3.161-1.852 5.891-3.451 8.232-4.928a4.5 4.5 0 1 1 4.8 7.612c-2.466 1.555-5.389 3.268-8.483 5.082-25.43 14.9-67.992 39.847-74.6 96.962a4.5 4.5 0 0 1 -4.461 3.984z" fill="#58962f"/><path d="m447.784 115.114c-2.848-13.854-34.364-19.665-60.622-13.308 25.008-10.891 53.418-30.216 41.846-43.572-10.595-12.234-33.708-1.823-55.508 15.876 14.449-15 32-38.778 17.841-47.624-17.408-10.874-34.008 9.364-44.141 28.672 10.661-26.352 9.632-44.419-5.7-46.848-16.452-2.61-25.588 10.022-26.831 41.59-2.056-26.847-12.523-45.967-27.825-41.592-18.09 5.173-12.231 26.628-1.855 49.44-14.543-22.948-35.789-33.461-45.402-25.326-10.423 8.821-3.11 22.286 20.218 43.477-23.95-15.279-46.942-12.626-52.611-6.464-10.22 11.105-1.456 25.413 33.6 35.85-24.049-5.885-52.734-7.511-57.194 11.086-3.843 16.031 25.769 19.449 51.958 19.005-21.128 3.195-49.574 13.552-48.329 26.38 1.559 16.067 18.71 17.045 54.856 2.126-18.962 10.934-39.775 31.051-33.013 42.118 7.853 12.849 21.565 5.7 51.832-18.555-15.146 17.528-28.641 46.936-15.563 54.362 11.428 6.489 25.676-5.032 42.711-40.52-6.261 24.628-7.07 59.876 9.074 62.122 12.47 1.736 25.8-21.258 25.871-59.055 6.957 31.125 20.561 56.548 35.344 50.646 15.791-6.3 8.706-37.314-3.9-62.712 15.336 20.315 40.926 40.051 52.242 31.1 8.776-6.942 3.663-27.713-29.942-54.363 23.217 12.035 59.663 16.261 65.232.761 4.248-11.823-17.288-27.41-53.364-33.2 32.465-.013 62.328-6.136 59.175-21.472z" fill="#ffcc29"/><path d="m389.381 129.34c-2.948 44.832-38.721 78.276-81 75.5s-75.61-31.846-72.662-76.678 45.3-81 87.576-78.223 69.034 34.568 66.086 79.401z" fill="#774f47"/><g fill="#513232"><path d="m334.6 182.612a4.5 4.5 0 0 1 -4.055-2.542c-5.478-11.329-7.746-31.951-6.065-55.166 1.668-23.052 6.685-42.206 13.421-51.235a4.5 4.5 0 0 1 7.214 5.382c-11.448 15.344-17.159 74.99-6.467 97.1a4.5 4.5 0 0 1 -4.048 6.46z"/><path d="m286.281 183.494a4.5 4.5 0 0 1 -4.1-2.644c-10.48-23.138-18.3-79.72 3.427-110.11a4.5 4.5 0 0 1 7.322 5.235c-8.266 11.562-12.543 30.033-12.041 52.01.411 18.038 4.136 37.331 9.49 49.151a4.5 4.5 0 0 1 -4.1 6.358z"/><path d="m261.848 113.1a4.5 4.5 0 0 1 -2.554-8.208c29.873-20.542 80.726-12.854 106.063-5.074a4.5 4.5 0 1 1 -2.642 8.6c-23.794-7.306-71.278-14.711-98.321 3.887a4.476 4.476 0 0 1 -2.546.795z"/><path d="m360.069 153.183a4.481 4.481 0 0 1 -2.055-.5c-15.166-7.807-64.338-19.646-96.034-2.619a4.5 4.5 0 1 1 -4.259-7.928c33.974-18.252 85.583-7.148 104.412 2.545a4.5 4.5 0 0 1 -2.064 8.5z"/></g><path d="m234.724 317.484c-7.627 25.705-35 32.041-63.5 22.45-31.531-10.612-53.333-32.482-45.706-58.187s39.665-38.871 71.559-29.408 45.274 39.441 37.647 65.145z" fill="#774f47"/><path d="m189.287 324.578a4.5 4.5 0 0 1 -4.454-3.9c-1.719-12.809-12.653-35.128-30.663-42.351a4.5 4.5 0 1 1 3.351-8.354c21.57 8.652 34.172 34.159 36.231 49.509a4.5 4.5 0 0 1 -3.861 5.058 4.586 4.586 0 0 1 -.604.038z" fill="#513232"/><path d="m213.718 316.24a4.5 4.5 0 0 1 -4.454-3.9c-1.931-14.391-11.389-39.787-28.549-46.67a4.5 4.5 0 1 1 3.351-8.353c23.319 9.353 32.535 42.026 34.118 53.827a4.5 4.5 0 0 1 -3.862 5.058 4.561 4.561 0 0 1 -.604.038z" fill="#513232"/><path d="m168.528 322.651a4.5 4.5 0 0 1 -3.154-7.71c31.8-31.243 57.688-23.09 58.773-22.728a4.5 4.5 0 1 1 -2.846 8.538c-.852-.268-22.023-6.508-49.62 20.61a4.484 4.484 0 0 1 -3.153 1.29z" fill="#513232"/><path d="m150.391 297.651a4.5 4.5 0 0 1 -3.118-7.746c18.867-18.117 42.054-27.353 55.134-27.17a4.5 4.5 0 0 1 4.427 4.572 4.545 4.545 0 0 1 -4.572 4.427c-10.981-.19-31.826 8.405-48.754 24.662a4.488 4.488 0 0 1 -3.117 1.255z" fill="#513232"/></svg>