<svg id="flat" height="512" viewBox="0 0 64 64" width="512" xmlns="http://www.w3.org/2000/svg">
    <path
        d="m40.38 18.74c.4 1.01.62 2.11.62 3.26s-.22 2.25-.62 3.26c-.04.12-.09.24-.15.36-.45 1.02-1.09 1.95-1.87 2.74-.79.78-1.72 1.42-2.74 1.87-.12.06-.24.11-.36.15-1.01.4-2.11.62-3.26.62s-2.25-.22-3.26-.62c-.12-.04-.24-.09-.36-.15-2.05-.9-3.71-2.56-4.61-4.61-.06-.12-.11-.24-.15-.36-.4-1.01-.62-2.11-.62-3.26s.22-2.25.62-3.26c.04-.12.09-.24.15-.36.45-1.02 1.09-1.95 1.87-2.74.79-.78 1.72-1.42 2.74-1.87.12-.06.24-.11.36-.15 1.01-.4 2.11-.62 3.26-.62s2.25.22 3.26.62c.12.04.24.09.36.15 1.02.45 1.95 1.09 2.74 1.87.78.79 1.42 1.72 1.87 2.74.06.12.11.24.15.36z"
        fill="#b16612" />
    <path
        d="m39.44 27.04c-.32.47-.68.91-1.08 1.32-.79.78-1.72 1.42-2.74 1.87-.12.06-.24.11-.36.15-1.01.4-2.11.62-3.26.62s-2.25-.22-3.26-.62c-.12-.04-.24-.09-.36-.15-2.05-.9-3.71-2.56-4.61-4.61-.06-.12-.11-.24-.15-.36-.4-1.01-.62-2.11-.62-3.26s.22-2.25.62-3.26c.04-.12.09-.24.15-.36.45-1.02 1.09-1.95 1.87-2.74.79-.78 1.72-1.42 2.74-1.87.06-.03.12-.06.18-.07-.31.45-.57.92-.79 1.42-.06.12-.11.24-.15.36-.4 1.01-.62 2.11-.62 3.26s.22 2.25.62 3.26c.04.12.09.24.15.36.9 2.05 2.56 3.71 4.61 4.61.12.06.24.11.36.15 1.01.4 2.11.62 3.26.62s2.25-.22 3.26-.62c.06-.02.12-.04.18-.08z"
        fill="#904b17" />
    <g fill="#ffb700">
        <path
            d="m19.98 15.64c1.22 1.22 2.54 2.15 3.79 2.74-.06.12-.11.24-.15.36-1.31-.47-2.9-.74-4.62-.74-1.52 0-2.93.21-4.14.58-1.87-1.53-2.81-3.3-2.25-4.64.54-1.31 2.4-2.05 4.74-1.85.59 1.18 1.49 2.41 2.63 3.55z" />
        <path
            d="m23.77 25.62c-1.25.59-2.57 1.52-3.79 2.74-1.16 1.16-2.06 2.4-2.65 3.59-2.27.2-4.07-.37-4.62-1.65-.59-1.38.4-3.22 2.37-4.81 1.16.32 2.5.51 3.92.51 1.72 0 3.31-.27 4.62-.74.04.12.09.24.15.36z" />
        <path
            d="m28.74 30.38c-.47 1.31-.74 2.9-.74 4.62 0 1.52.21 2.93.58 4.14-1.53 1.87-3.3 2.81-4.64 2.25-1.31-.54-2.1-2.38-1.91-4.71 1.19-.59 2.45-1.5 3.61-2.66 1.22-1.22 2.15-2.54 2.74-3.79.12.06.24.11.36.15z" />
        <path
            d="m38.36 34.02c.95.95 1.97 1.74 2.97 2.32.29 2.6-.33 4.69-1.76 5.25-1.26.49-2.87-.33-4.29-2 .45-1.3.72-2.88.72-4.59 0-1.72-.27-3.31-.74-4.62.12-.04.24-.09.36-.15.59 1.25 1.52 2.57 2.74 3.79z" />
        <path
            d="m40.38 25.26c1.31.47 2.9.74 4.62.74 1.52 0 2.93-.21 4.14-.58 1.87 1.53 2.81 3.3 2.25 4.64-.54 1.3-2.37 2.14-4.69 1.95-.59-1.21-1.51-2.48-2.68-3.65-1.22-1.22-2.54-2.15-3.79-2.74.06-.12.11-.24.15-.36z" />
        <path
            d="m40.23 18.38c1.25-.59 2.57-1.52 3.79-2.74 1.16-1.16 2.06-2.4 2.65-3.59 2.27-.2 4.07.37 4.62 1.65.59 1.38-.4 3.22-2.37 4.81-1.16-.32-2.5-.51-3.92-.51-1.72 0-3.31.27-4.62.74-.04-.12-.09-.24-.15-.36z" />
    </g>
    <path
        d="m41.33 36.34c-1-.58-2.02-1.37-2.97-2.32-.522-.522-.979-1.064-1.391-1.609 1.086 3.127 2.424 6.019 2.197 9.281.137-.023.273-.051.404-.102 1.43-.56 2.05-2.65 1.76-5.25z"
        fill="#ff9500" />
    <path
        d="m51.038 30.626c.143-.178.268-.364.352-.566.56-1.34-.38-3.11-2.25-4.64-1.21.37-2.62.58-4.14.58-.268 0-.526-.018-.787-.031 2.596 1.048 4.978 2.334 6.825 4.657z"
        fill="#ff9500" />
    <path
        d="m51.445 14.766c.032-.375-.013-.734-.155-1.066-.55-1.28-2.35-1.85-4.62-1.65-.59 1.19-1.49 2.43-2.65 3.59-1.22 1.22-2.54 2.15-3.79 2.74.06.12.11.24.15.36.758-.272 1.618-.467 2.535-.592 1.764-2.329 5.427-3.578 8.53-3.382z"
        fill="#ff9500" />
    <path
        d="m38.36 9.98c-1.22 1.22-2.15 2.54-2.74 3.79-.12-.06-.24-.11-.36-.15.47-1.31.74-2.9.74-4.62 0-1.52-.21-2.93-.58-4.14 1.53-1.87 3.3-2.81 4.64-2.25 1.31.54 2.1 2.38 1.91 4.71-1.19.59-2.45 1.5-3.61 2.66z"
        fill="#ffb700" />
    <path
        d="m28 9c0 1.72.27 3.31.74 4.62-.12.04-.24.09-.36.15-.59-1.25-1.52-2.57-2.74-3.79-.96-.96-1.97-1.74-2.97-2.32-.29-2.6.33-4.69 1.76-5.25 1.26-.49 2.87.33 4.29 2-.45 1.3-.72 2.88-.72 4.59z"
        fill="#ffb700" />
    <path
        d="m20.225 15.867c-2.605.894-5.795.515-7.62-1.908-.544 1.338.393 3.098 2.255 4.622 1.21-.371 2.62-.581 4.14-.581 1.72 0 3.31.27 4.62.74.04-.12.09-.24.15-.36-1.168-.551-2.393-1.41-3.545-2.513z"
        fill="#ff9500" />
    <path
        d="m23.62 25.26c-1.025.368-2.224.607-3.52.697-1.571 2.267-4.618 3.581-7.502 3.94.028.137.056.274.111.403.55 1.28 2.35 1.85 4.62 1.65.59-1.19 1.49-2.43 2.65-3.59 1.22-1.22 2.54-2.15 3.79-2.74-.059-.12-.109-.24-.149-.36z"
        fill="#ff9500" />
    <path
        d="m28.74 30.38c-.12-.04-.24-.09-.36-.15-.449.95-1.096 1.94-1.915 2.897.253 3.098-.363 5.736-3.088 7.913.176.143.361.267.563.35 1.34.56 3.11-.38 4.64-2.25-.37-1.21-.58-2.62-.58-4.14 0-1.72.27-3.31.74-4.62z"
        fill="#ff9500" />
    <path
        d="m40.623 2.96c-.176-.142-.361-.266-.563-.35-1.34-.56-3.11.38-4.64 2.25.37 1.21.58 2.62.58 4.14 0 1.72-.27 3.31-.74 4.62.12.04.24.09.36.15.349-.739.831-1.502 1.407-2.255.107-3.378.676-6.23 3.596-8.555z"
        fill="#ff9500" />
    <path
        d="m25.028 2.286c-.205.016-.407.05-.598.124-1.43.56-2.05 2.65-1.76 5.25 1 .58 2.01 1.36 2.97 2.32 1.22 1.22 2.15 2.54 2.74 3.79.12-.06.24-.11.36-.15-.308-.86-.52-1.849-.636-2.907-2.172-1.969-2.937-4.909-3.076-8.427z"
        fill="#ff9500" />
    <path
        d="m28.38 30.23c-.59 1.25-1.52 2.57-2.74 3.79-1.16 1.16-2.42 2.07-3.61 2.66-2.03 1.02-3.9 1.15-4.88.17s-.85-2.86.18-4.9c.59-1.19 1.49-2.43 2.65-3.59 1.22-1.22 2.54-2.15 3.79-2.74.9 2.05 2.56 3.71 4.61 4.61z"
        fill="#f2da09" />
    <path
        d="m28.38 30.23c-.59 1.25-1.52 2.57-2.74 3.79-1.16 1.16-2.42 2.07-3.61 2.66-2.03 1.02-3.9 1.15-4.88.17-.61-.61-.79-1.57-.59-2.7 1.02.27 2.4-.01 3.86-.74 1.19-.59 2.45-1.5 3.61-2.66.71-.71 1.32-1.45 1.83-2.19.73.69 1.59 1.26 2.52 1.67z"
        fill="#f5b504" />
    <path
        d="m19 18c1.72 0 3.31.27 4.62.74-.4 1.01-.62 2.11-.62 3.26s.22 2.25.62 3.26c-1.31.47-2.9.74-4.62.74-1.42 0-2.76-.19-3.92-.51-2.44-.69-4.08-1.99-4.08-3.49 0-1.45 1.55-2.72 3.86-3.42 1.21-.37 2.62-.58 4.14-.58z"
        fill="#f2da09" />
    <path
        d="m23.62 25.26c-1.31.47-2.9.74-4.62.74-1.42 0-2.76-.19-3.92-.51-2.44-.69-4.08-1.99-4.08-3.49 0-.91.61-1.75 1.63-2.42.48 1.14 1.93 2.09 3.9 2.65 1.16.32 2.5.51 3.92.51.9 0 1.77-.07 2.57-.21.05.96.26 1.88.6 2.73z"
        fill="#f5b504" />
    <path
        d="m25.64 9.98c1.22 1.22 2.15 2.54 2.74 3.79-1.02.45-1.95 1.09-2.74 1.87-.78.79-1.42 1.72-1.87 2.74-1.25-.59-2.57-1.52-3.79-2.74-1.14-1.14-2.04-2.37-2.63-3.55-1.04-2.05-1.19-3.95-.2-4.94 1.08-1.08 3.25-.81 5.52.51 1 .58 2.01 1.36 2.97 2.32z"
        fill="#f2da09" />
    <path
        d="m25.15 16.18c-.56.66-1.03 1.4-1.38 2.2-1.25-.59-2.57-1.52-3.79-2.74-1.14-1.14-2.04-2.37-2.63-3.55-1.04-2.05-1.19-3.95-.2-4.94.64-.64 1.66-.8 2.85-.56-.53 1.06-.28 2.67.59 4.39.59 1.18 1.49 2.41 2.63 3.55.63.63 1.28 1.18 1.93 1.65z"
        fill="#f5b504" />
    <path
        d="m36 9c0 1.72-.27 3.31-.74 4.62-1.01-.4-2.11-.62-3.26-.62s-2.25.22-3.26.62c-.47-1.31-.74-2.9-.74-4.62 0-1.71.27-3.29.72-4.59.73-2.06 1.92-3.41 3.28-3.41 1.45 0 2.72 1.55 3.42 3.86.37 1.21.58 2.62.58 4.14z"
        fill="#f2da09" />
    <path
        d="m34.08 2.17c-.85.53-1.57 1.61-2.08 3.04-.45 1.3-.72 2.88-.72 4.59 0 1.14.12 2.23.34 3.21-1.01.04-1.98.25-2.88.61-.47-1.31-.74-2.9-.74-4.62 0-1.71.27-3.29.72-4.59.73-2.06 1.92-3.41 3.28-3.41.76 0 1.47.43 2.08 1.17z"
        fill="#f5b504" />
    <path
        d="m46.85 7.15c.98.98.85 2.86-.18 4.9-.59 1.19-1.49 2.43-2.65 3.59-1.22 1.22-2.54 2.15-3.79 2.74-.45-1.02-1.09-1.95-1.87-2.74-.79-.78-1.72-1.42-2.74-1.87.59-1.25 1.52-2.57 2.74-3.79 1.16-1.16 2.42-2.07 3.61-2.66 2.03-1.02 3.9-1.15 4.88-.17z"
        fill="#f2da09" />
    <path
        d="m47.52 9.17c-1.02-.27-2.4.01-3.86.74-1.19.59-2.45 1.5-3.61 2.66-.86.86-1.58 1.77-2.13 2.67-.69-.6-1.46-1.1-2.3-1.47.59-1.25 1.52-2.57 2.74-3.79 1.16-1.16 2.42-2.07 3.61-2.66 2.03-1.02 3.9-1.15 4.88-.17.48.48.7 1.19.67 2.02z"
        fill="#f5b504" />
    <path
        d="m48.92 18.51c2.44.69 4.08 1.99 4.08 3.49 0 1.45-1.55 2.72-3.86 3.42-1.21.37-2.62.58-4.14.58-1.72 0-3.31-.27-4.62-.74.4-1.01.62-2.11.62-3.26s-.22-2.25-.62-3.26c1.31-.47 2.9-.74 4.62-.74 1.42 0 2.76.19 3.92.51z"
        fill="#f2da09" />
    <path
        d="m53 22c0 .7-.37 1.36-1.01 1.94-.46-1.16-1.92-2.13-3.92-2.7-1.16-.32-2.5-.51-3.92-.51-1.14 0-2.22.12-3.2.34-.08-.82-.28-1.6-.57-2.33 1.31-.47 2.9-.74 4.62-.74 1.42 0 2.76.19 3.92.51 2.44.69 4.08 1.99 4.08 3.49z"
        fill="#f5b504" />
    <path
        d="m46.7 32.01c1 2.02 1.12 3.87.15 4.84-1.08 1.08-3.25.81-5.52-.51-1-.58-2.02-1.37-2.97-2.32-1.22-1.22-2.15-2.54-2.74-3.79 1.02-.45 1.95-1.09 2.74-1.87.78-.79 1.42-1.72 1.87-2.74 1.25.59 2.57 1.52 3.79 2.74 1.17 1.17 2.09 2.44 2.68 3.65z"
        fill="#f2da09" />
    <path
        d="m46.85 36.85c-.6.6-1.53.78-2.63.6.62-1.03.42-2.67-.46-4.44-.59-1.21-1.51-2.48-2.68-3.65-.67-.67-1.37-1.25-2.07-1.74.49-.61.9-1.28 1.22-2 1.25.59 2.57 1.52 3.79 2.74 1.17 1.17 2.09 2.44 2.68 3.65 1 2.02 1.12 3.87.15 4.84z"
        fill="#f5b504" />
    <path
        d="m35.26 30.38c.47 1.31.74 2.9.74 4.62 0 1.71-.27 3.29-.72 4.59-.34.95-.77 1.75-1.28 2.33-.59.69-1.27 1.08-2 1.08s-1.41-.39-2-1.08c-.59-.67-1.08-1.63-1.42-2.78-.37-1.21-.58-2.62-.58-4.14 0-1.72.27-3.31.74-4.62 1.01.4 2.11.62 3.26.62s2.25-.22 3.26-.62z"
        fill="#f2da09" />
    <path
        d="m36 35c0 1.71-.27 3.29-.72 4.59-.34.95-.77 1.75-1.28 2.33-.59.69-1.27 1.08-2 1.08s-1.41-.39-2-1.08c-.05-.06-.11-.12-.16-.19.19-.14.37-.32.54-.52.51-.58.94-1.38 1.28-2.33.45-1.3.72-2.88.72-4.59 0-1.17-.13-2.29-.36-3.29 1.14 0 2.24-.22 3.24-.62.47 1.31.74 2.9.74 4.62z"
        fill="#f5b504" />
    <path
        d="m32.98 54.58c0 .84.32 1.69.97 2.34l.05.05v4.03c0 1.1-.9 2-2 2-.55 0-1.05-.22-1.41-.59-.37-.36-.59-.86-.59-1.41v-4.02-6.18-8.88c.59.69 1.27 1.08 2 1.08s1.41-.39 2-1.08v10.28c-.67.62-1.02 1.5-1.02 2.38z"
        fill="#1c7b00" />
    <path d="m30 50.8v6.18l-9.46-12.61z" fill="#5cad08" />
    <path
        d="m48.79 42.08-9.77 14.37c-1.15 1.69-3.56 1.93-5.02.52-.02-.02-.03-.03-.05-.05-.65-.65-.97-1.5-.97-2.34 0-.88.35-1.76 1.02-2.38.13-.14.27-.25.42-.35z"
        fill="#7acf00" />
    <path
        d="m48.79 42.08-3.47 5.1-7.88 5.36c-.15.1-.29.21-.42.35-.67.62-1.02 1.5-1.02 2.38 0 .84.32 1.69.97 2.34l.05.05c.04.04.08.08.13.11-1.07.29-2.28.04-3.15-.8-.02-.02-.03-.03-.05-.05-.65-.65-.97-1.5-.97-2.34 0-.88.35-1.76 1.02-2.38.13-.14.27-.25.42-.35z"
        fill="#5cad08" />
</svg>